<svg width="74" height="47" viewBox="0 0 74 47" fill="none" xmlns="http://www.w3.org/2000/svg">
<path d="M0.793876 2.936V0.559999H12.7939V2.936H8.16188V17H5.47388V2.936H0.793876ZM18.3947 11.144V17H15.7307V0.559999H21.9707C25.6827 0.559999 27.5387 2.304 27.5387 5.792C27.5387 8.128 26.6427 9.712 24.8507 10.544L27.5627 17H24.6347L22.2587 11.144H18.3947ZM24.8027 5.816C24.8027 3.848 23.8587 2.864 21.9707 2.864H18.3947V8.84H22.0187C22.9787 8.84 23.6827 8.568 24.1307 8.024C24.5787 7.464 24.8027 6.728 24.8027 5.816ZM29.7066 17L33.7626 0.559999H39.0666L43.1466 17H40.4586L39.5706 13.472H33.2586L32.3706 17H29.7066ZM35.8266 2.792L33.7866 11.12H39.0426L37.0266 2.792H35.8266ZM46.2098 17V0.559999H50.8658L55.8578 14.648H56.2178V0.559999H58.8818V17H54.3218L49.2098 2.888H48.8738V17H46.2098ZM68.2069 2.624C66.1749 2.624 65.1589 3.336 65.1589 4.76C65.1589 5.496 65.3989 6.024 65.8789 6.344C66.3589 6.648 67.4149 7.032 69.0469 7.496C70.6949 7.944 71.8549 8.488 72.5269 9.128C73.1989 9.752 73.5349 10.744 73.5349 12.104C73.5349 13.832 73.0389 15.128 72.0469 15.992C71.0709 16.84 69.7349 17.264 68.0389 17.264C66.6789 17.264 65.1749 17.104 63.5269 16.784L62.6629 16.616L62.9269 14.48C65.0869 14.768 66.7349 14.912 67.8709 14.912C69.8549 14.912 70.8469 14.032 70.8469 12.272C70.8469 11.584 70.6229 11.08 70.1749 10.76C69.7269 10.424 68.7189 10.064 67.1509 9.68C65.5829 9.28 64.4149 8.736 63.6469 8.048C62.8789 7.36 62.4949 6.272 62.4949 4.784C62.4949 3.296 62.9749 2.176 63.9349 1.424C64.9109 0.655999 66.2549 0.271999 67.9669 0.271999C69.1989 0.271999 70.6549 0.415999 72.3349 0.704L73.1749 0.847999L72.9589 3.008C70.7189 2.752 69.1349 2.624 68.2069 2.624ZM16.4689 46H7.25288V29.56H9.91688V43.624H16.4689V46ZM19.3635 46V29.56H22.0275V46H19.3635ZM33.2248 39.712V37.36H37.9048V45.712C37.4728 45.824 36.5928 45.944 35.2648 46.072C33.9528 46.2 33.0008 46.264 32.4088 46.264C29.9128 46.264 28.1928 45.576 27.2488 44.2C26.3048 42.824 25.8328 40.672 25.8328 37.744C25.8328 34.8 26.3128 32.656 27.2728 31.312C28.2488 29.968 29.9288 29.296 32.3128 29.296C33.7208 29.296 35.3048 29.456 37.0648 29.776L37.9048 29.944L37.8088 32.056C35.8728 31.8 34.1368 31.672 32.6008 31.672C31.0648 31.672 30.0088 32.104 29.4328 32.968C28.8728 33.832 28.5928 35.432 28.5928 37.768C28.5928 40.104 28.8568 41.72 29.3848 42.616C29.9288 43.496 31.0168 43.936 32.6488 43.936C33.8168 43.936 34.6888 43.864 35.2648 43.72V39.712H33.2248ZM51.7356 46V38.896H44.6316V46H41.9676V29.56H44.6316V36.568H51.7356V29.56H54.4236V46H51.7356ZM57.3223 31.936V29.56H69.3223V31.936H64.6903V46H62.0023V31.936H57.3223Z" fill="white"/>
</svg>
